<svg width="80" height="78" viewBox="0 0 80 78" xmlns="http://www.w3.org/2000/svg"><title>bullet-1</title><g id="Symbols" fill="none" fill-rule="evenodd"><g id="bullet-1" fill="#FFF"><path d="M29.594 39.304c.725.603 1.208 1.447 1.208 2.412h1.812c0-1.447-.604-2.774-1.812-3.738-.846-.724-2.053-1.206-3.261-1.447v-3.738h-1.812v3.738c-1.208.12-2.295.603-3.26 1.447-1.209.964-1.813 2.29-1.813 3.738 0 1.446.604 2.773 1.812 3.737 1.087.965 2.536 1.447 4.107 1.447 1.087 0 2.174.362 3.02 1.085.724.603 1.207 1.447 1.207 2.412 0 .964-.362 1.688-1.208 2.411-1.57 1.326-4.348 1.326-5.918 0-.725-.603-1.208-1.447-1.208-2.411h-1.812c0 1.447.604 2.773 1.812 3.737.846.724 2.053 1.206 3.261 1.447v3.738h1.812v-3.738c1.208-.12 2.295-.603 3.26-1.447 1.209-.964 1.813-2.29 1.813-3.737s-.604-2.773-1.812-3.738a6.199 6.199 0 0 0-4.107-1.567c-1.087 0-2.174-.362-3.02-1.086-.724-.602-1.207-1.446-1.207-2.411 0-.844.362-1.688 1.208-2.411 1.57-1.206 4.348-1.206 5.918.12zM26.454 21.7v-1.808c-.604 0-1.208 0-1.812.12l.12 1.81c.484-.121 1.088-.121 1.692-.121zm4.589-1.446c-.603-.12-1.207-.241-1.811-.241l-.121 1.808c.604 0 1.208.12 1.69.241l.242-1.808zm-8.937 1.808l-.363-1.808c-.604.12-1.207.24-1.811.362l.483 1.688c.483 0 1.087-.121 1.69-.242zM50.851 42.56l1.812-.242-.362-1.808-1.812.362c.12.602.242 1.205.362 1.688zm-15.218-21.1c-.604-.242-1.208-.362-1.812-.603l-.483 1.688c.604.12 1.087.361 1.691.482l.604-1.567zm-17.755 1.808l-.603-1.688c-.604.241-1.208.482-1.691.724l.724 1.567c.483-.12.967-.362 1.57-.603zM10.39 27.85l-1.208-1.326a6.915 6.915 0 0 0-1.328 1.326l1.328 1.206c.363-.362.725-.844 1.208-1.206zm3.503-2.653l-.967-1.567c-.483.362-1.087.723-1.57 1.085l1.087 1.447c.483-.241.967-.603 1.45-.965zM39.86 23.51c-.483-.362-1.087-.604-1.69-.845l-.846 1.568c.483.24 1.087.482 1.57.844l.966-1.568zm11.595 30.986l-1.69-.603c-.242.603-.363 1.085-.605 1.568l1.691.723c.242-.603.363-1.085.604-1.688zM49.764 38.34l1.691-.603c-.241-.603-.362-1.206-.604-1.688l-1.69.723c.241.482.483 1.085.603 1.568zm2.778 11.574l-1.811-.24c-.121.602-.242 1.084-.363 1.687l1.812.362c.241-.603.241-1.206.362-1.809zm-5.435 9.405l1.45.965c.362-.483.603-1.086.966-1.568l-1.57-.844c-.242.482-.604.965-.846 1.447zM7.37 31.105L5.922 30.02l-1.087 1.447 1.45.965c.362-.483.724-.965 1.087-1.327zm36.355-4.943c-.483-.362-.966-.844-1.449-1.206l-1.087 1.447c.483.362.966.723 1.329 1.085l1.207-1.326zm5.919 7.355c-.242-.603-.604-1.085-.967-1.568l-1.57.965c.362.482.604.964.846 1.447l1.69-.844zm-2.658-3.979c-.362-.482-.845-.965-1.207-1.447l-1.329 1.206c.362.482.725.844 1.087 1.326l1.45-1.085zM7.974 64.383l1.329 1.326 1.208-1.326a5.72 5.72 0 0 1-1.208-1.206l-1.329 1.206zm12.199 6.993l1.812.362.362-1.809c-.604-.12-1.087-.24-1.69-.361l-.484 1.808zm-4.469-1.567c.604.24 1.087.482 1.691.723L18 68.844c-.483-.241-1.087-.482-1.57-.723l-.725 1.688zm9.059 2.291c.604 0 1.208.12 1.812.12v-1.808c-.604 0-1.208 0-1.691-.121l-.121 1.809zM5.076 34.722l-1.57-.844c-.242.603-.604 1.086-.846 1.688l1.691.724c.12-.482.362-1.085.725-1.568zM33.58 69.326l.483 1.688c.604-.12 1.208-.361 1.812-.602l-.604-1.688c-.604.361-1.087.482-1.691.602zm17.513-24.114V46.9l1.812.12v-1.928l-1.812.12zM11.598 67.397a11.03 11.03 0 0 0 1.57.965l.966-1.568c-.483-.24-.966-.602-1.45-.964l-1.086 1.567zm17.634 2.894l.241 1.809c.604-.121 1.208-.121 1.812-.242l-.362-1.808c-.483 0-1.087.12-1.691.241zM2.419 43.042L.607 42.8c-.12.603-.12 1.205-.12 1.808l1.81.12c0-.481.122-1.084.122-1.687zm-.121 4.461H.486c0 .603.12 1.206.12 1.809l1.813-.242c0-.482-.121-1.085-.121-1.567zm2.657 13.263l1.087 1.447 1.45-1.085-1.088-1.447-1.449 1.085zm-1.57-21.944l-1.691-.482c-.242.602-.362 1.205-.483 1.808l1.69.362c.121-.603.242-1.206.484-1.688zm.966 17.121l-1.69.723c.24.603.482 1.086.845 1.688l1.57-.844c-.242-.482-.483-1.085-.725-1.567zm-1.449-4.099l-1.691.482c.12.603.362 1.206.483 1.808l1.69-.602c-.12-.603-.362-1.206-.482-1.688zM65.949 5.182c-7.247 0-13.044 5.908-13.044 13.022 0 7.234 5.918 13.022 13.044 13.022s13.044-5.908 13.044-13.022c0-7.234-5.918-13.022-13.044-13.022zm0 24.235c-6.16 0-11.233-5.064-11.233-11.213 0-6.15 5.073-11.213 11.233-11.213S77.18 12.055 77.18 18.204c0 6.15-5.072 11.213-11.232 11.213z" id="Shape" fill-rule="nonzero"/><path d="M52.663 63.9a.907.907 0 0 0-.604-.843L42.034 59.8c3.503-3.858 5.315-8.68 5.315-13.865 0-11.455-9.3-20.618-20.654-20.618-11.353 0-20.774 9.284-20.774 20.738 0 11.454 9.3 20.618 20.654 20.618 3.14 0 6.16-.724 8.937-2.05l3.624 11.334c.12.362.483.603.845.603a.908.908 0 0 0 .846-.603l2.657-7.234 7.609 7.596c.12.12.362.24.604.24.241 0 .483-.12.604-.24a.945.945 0 0 0 0-1.327l-7.61-7.596 7.247-2.652c.483-.12.725-.483.725-.844zm-25.968.965c-10.508 0-18.962-8.44-18.962-18.809 0-10.369 8.454-18.93 18.962-18.93s18.963 8.44 18.963 18.93c0 5.064-1.933 9.646-5.435 13.263l-5.315-1.688a.94.94 0 0 0-.966.241.938.938 0 0 0-.241.965l1.328 4.22a19.946 19.946 0 0 1-8.334 1.808zm16.185 1.327c-.12 0-.242.12-.362.24-.121.121-.121.242-.242.362l-2.295 6.15L35.754 59.8l13.165 4.22-6.04 2.17z" id="Shape" fill-rule="nonzero"/><path d="M65.072 22.278v-1.712h-2.985l1.967-2.083c.66-.694 1.018-1.157 1.018-2.025 0-1.55-1.111-2.487-2.638-2.487-1.435 0-2.661.89-2.661 2.51h1.897c0-.636.417-.798.764-.798.486 0 .74.313.74.764 0 .347-.115.555-.416.88l-2.985 3.238v1.713h5.299zm6.652-1.088v-1.805h-.613v-1.087h-1.805v1.087h-1.33l2.73-5.345h-2.082l-2.73 5.345v1.805h3.412v1.088h1.805V21.19h.613z" id="24"/><path id="Rectangle" d="M64.944.792h2.479v5.785h-2.479z"/><path id="Rectangle-Copy" transform="rotate(-90 66.184 2.031)" d="M64.944-.861h2.479v5.785h-2.479z"/></g></g></svg>