<svg width="68" height="61" viewBox="0 0 68 61" xmlns="http://www.w3.org/2000/svg"><title>bullet-4</title><g id="Symbols" fill="none" fill-rule="evenodd"><g id="bullet-4" fill-rule="nonzero" fill="#FFF"><path d="M.002.726v59.701h67.863V.726H.002zM66.311 2.28v6.426H1.557V2.28H66.31zM1.557 58.873V10.26H66.31v48.612H1.557z" id="Shape"/><path id="Rectangle-path" d="M51.288 4.768h1.554v1.555h-1.554zm7.874 0h1.554v1.555h-1.554zm-3.937 0h1.554v1.555h-1.554zm-48.695 0h39.889v1.555H6.53z"/><path d="M33.882 14.304L12.539 30.058H9.845v1.555H14.3v23.32h39.164v-23.32h4.455v-1.555h-2.694L33.882 14.304zm0 1.865l18.753 13.89H15.129l18.753-13.89zM21.138 53.38V40.216h8.91v13.163h-8.91zm30.772 0H31.499V38.661H19.584v14.718h-3.73V31.613H51.91v21.766z" id="Shape"/><path d="M47.869 35.137H35.954v11.712H47.87V35.137zm-1.554 5.079h-3.626v-3.524h3.626v3.524zm-5.18-3.524v3.524h-3.627v-3.524h3.626zm-3.627 5.078h3.626v3.525h-3.626V41.77zm5.18 3.525V41.77h3.627v3.525h-3.626z" id="Shape"/></g></g></svg>