<svg width="65" height="73" viewBox="0 0 65 73" xmlns="http://www.w3.org/2000/svg"><title>bullet-3</title><g id="Symbols" fill="none" fill-rule="evenodd"><g id="bullet-3" fill-rule="nonzero" fill="#FFF"><path id="Rectangle-path" d="M26.801 5.818h1.809v1.678h-1.809z"/><path d="M42.746 5.482H34.04C33.586 2.462 30.872 0 27.593 0c-3.28 0-5.994 2.461-6.333 5.482h-8.708v3.916H.34v63.324h54.507V9.51h-12.1V5.482zM14.25 7.16h8.707v-.783c0-2.573 2.149-4.699 4.75-4.699 2.6 0 4.75 2.126 4.75 4.7v.782h8.707v5.37H14.249V7.16zm39.014 4.028v59.856H2.036V11.188h10.516v3.02h30.194v-3.02h10.517zm7.802 24.837l-2.94 5.93v27.746c0 1.679 1.357 2.91 2.94 2.91a2.904 2.904 0 0 0 2.94-2.91V41.955l-2.94-5.93zm0 3.804l1.244 2.574v1.23h-2.601v-1.23l1.357-2.574zm1.357 5.37v20.699h-2.601V45.2h2.6zm-1.357 25.845c-.679 0-1.244-.56-1.244-1.23v-2.126h2.6v2.125c0 .672-.565 1.231-1.356 1.231z" id="Shape"/><path id="Rectangle-path" d="M24.766 22.935h22.278v1.678H24.766zm0 4.588h15.38v1.678h-15.38z"/><path id="Shape" d="M11.874 27.299l-1.357-1.343-1.131 1.119 2.488 2.573 5.428-5.482-1.13-1.119z"/><path d="M13.344 18.796c-4.071 0-7.237 3.244-7.237 7.16s3.279 7.16 7.237 7.16 7.237-3.244 7.237-7.16-3.166-7.16-7.237-7.16zm0 12.754c-3.053 0-5.654-2.461-5.654-5.594 0-3.02 2.488-5.594 5.654-5.594 3.053 0 5.654 2.462 5.654 5.594 0 3.133-2.6 5.594-5.654 5.594z" id="Shape"/><path id="Rectangle-path" d="M24.766 40.277h22.278v1.678H24.766zm0 4.587h15.38v1.678h-15.38z"/><path id="Shape" d="M11.874 44.64l-1.357-1.342-1.131 1.23 2.488 2.462 5.428-5.37-1.13-1.231z"/><path d="M13.344 36.25c-4.071 0-7.237 3.244-7.237 7.16 0 4.027 3.279 7.16 7.237 7.16s7.237-3.245 7.237-7.16c.114-3.916-3.166-7.16-7.237-7.16zm0 12.754c-3.053 0-5.654-2.462-5.654-5.594 0-3.021 2.488-5.594 5.654-5.594 3.053 0 5.654 2.46 5.654 5.594 0 3.02-2.6 5.594-5.654 5.594z" id="Shape"/><path id="Rectangle-path" d="M24.766 57.73h22.278v1.678H24.766zm0 4.587h15.38v1.678h-15.38z"/><path id="Shape" d="M11.874 62.094l-1.357-1.343-1.131 1.119 2.488 2.573 5.428-5.482-1.13-1.119z"/><path d="M13.344 53.59c-4.071 0-7.237 3.245-7.237 7.161 0 3.916 3.279 7.16 7.237 7.16s7.237-3.244 7.237-7.16-3.166-7.16-7.237-7.16zm0 12.755c-3.053 0-5.654-2.461-5.654-5.594 0-3.02 2.488-5.594 5.654-5.594 3.053 0 5.654 2.461 5.654 5.594 0 3.133-2.6 5.594-5.654 5.594z" id="Shape"/></g></g></svg>