<svg width="56" height="67" viewBox="0 0 56 67" xmlns="http://www.w3.org/2000/svg"><title>bullet-5</title><g id="Symbols" fill="none" fill-rule="evenodd"><g id="bullet-5" fill="#FFF"><path d="M45.603.92H.943v50.225c0 4.736 3.845 8.584 8.577 8.683l45.843 5.822V10.689l-9.76-9.77zm.394 2.565l6.802 6.809h-6.802V3.485zM13.562 58.841c2.465-1.283 4.24-3.75 4.634-6.611l30.068 11.051-34.702-4.44zm3.155-8.683v1.085c0 3.947-3.254 7.203-7.197 7.203-3.944 0-7.098-3.256-7.098-7.203V2.4h42.096v9.374h9.366v52L16.717 50.159z" id="Shape" fill-rule="nonzero"/><path d="M19.186 38.243v-14.71h-3.388l-3.14 2.727v3.616l3.14-2.727v11.094h3.388zm13.961-4.462c0 3.037-2.293 4.586-4.73 4.586-2.439 0-4.732-1.55-4.732-4.586v-5.785c0-3.037 2.293-4.587 4.731-4.587 2.438 0 4.731 1.55 4.731 4.587v5.785zm-3.388.02v-5.805c0-1.033-.62-1.529-1.343-1.529s-1.343.496-1.343 1.529V33.8c0 1.033.62 1.508 1.343 1.508s1.343-.475 1.343-1.508zm21.564 1.694c0 1.963-1.488 2.872-3.12 2.872-1.632 0-3.12-.909-3.12-2.872v-1.962c0-1.963 1.488-2.872 3.12-2.872 1.632 0 3.12.909 3.12 2.872v1.962zm-9.607-7.251c0 1.962-1.488 2.871-3.12 2.871-1.632 0-3.12-.909-3.12-2.871V26.28c0-1.963 1.488-2.872 3.12-2.872 1.632 0 3.12.91 3.12 2.872v1.963zm6.487-4.71l-7.004 14.71h-2.603l7.004-14.71h2.603zm-8.884 4.627v-1.797c0-.6-.31-.806-.723-.806s-.723.207-.723.806v1.797c0 .6.31.806.723.806s.723-.207.723-.806zm9.607 7.252v-1.798c0-.599-.31-.805-.723-.805s-.723.206-.723.805v1.798c0 .599.31.805.723.805s.723-.206.723-.805z" id="10%"/></g></g></svg>