<svg width="63" height="72" viewBox="0 0 63 72" xmlns="http://www.w3.org/2000/svg"><title>bullet-2</title><g id="Symbols" fill="none" fill-rule="evenodd"><g id="bullet-2" fill-rule="nonzero" fill="#FFF"><path d="M43.523 65.591h-9.476a.755.755 0 0 0-.771.774c0 .443.33.775.771.775h9.476c.44 0 .771-.332.771-.775a.755.755 0 0 0-.77-.774z" id="Shape"/><path id="Rectangle-path" d="M31.182 4.093h11.459v1.659H31.182zm13.333 0h1.653v1.659h-1.653z"/><path d="M14.875 0v24.223h-2.424c-1.873.111-3.636.996-4.738 2.544-.551.775-1.432 1.217-2.424 1.217h-.882l-.11-.11a2.028 2.028 0 0 0-1.763-.554c-.66 0-.881.111-1.212.111-.33 0-.44.11-1.322.11v1.66c.881 0 1.102 0 1.432-.11.22 0 .441-.111 1.102-.111.22 0 .441 0 .551.11.22.11.22.221.22.221v11.614c0 .11 0 .222-.11.222-.11.11-.33.22-.55.11-.772 0-.992-.11-.992-.11-.22-.111-.33-.111-1.543-.111v1.66h.882c.22.11.44.11 1.432.22h.11c.551 0 .992-.11 1.433-.442.33 0 1.432.11 1.983.442.22.11.33.222.55.332.882.553 1.764 1.106 3.747 1.549.882.22 2.204.22 3.416.22h.992v26.879h47.82V0h-47.6zm46.168 1.66v6.857H16.528V1.659h44.515zM10.798 43.247c-1.653-.332-2.534-.885-3.305-1.327-.22-.11-.331-.221-.551-.332-.661-.442-1.433-.553-1.984-.664v-11.17H5.4c1.543 0 2.865-.774 3.746-1.991.772-1.106 2.094-1.88 3.526-1.88h5.069a1.107 1.107 0 0 1 0 2.212h-2.975v1.659H29.31c.55 0 1.101.442 1.101 1.106 0 .553-.44 1.106-1.102 1.106H18.181v1.66h6.06a1.106 1.106 0 0 1 0 2.211h-5.73v1.66h4.958c.551 0 1.102.442 1.102 1.106 0 .553-.44 1.106-1.102 1.106H17.3v1.659h4.518c.55 0 1.102.442 1.102 1.106 0 .664-.441 1.106-1.102 1.106H17.3v.221-.221c-.22-.221-4.628.11-6.5-.332zm6.501 1.66h4.407a2.733 2.733 0 0 0 2.755-2.766c0-.442-.11-.885-.33-1.217 1.101-.332 1.983-1.327 1.983-2.654 0-.553-.22-1.106-.44-1.549a2.698 2.698 0 0 0 1.321-2.323c0-.331-.11-.774-.22-1.106h2.644a2.733 2.733 0 0 0 2.755-2.765 2.733 2.733 0 0 0-2.755-2.765h-9.145c.11-.332.22-.664.22-1.106a2.733 2.733 0 0 0-2.754-2.765h-1.212V10.176h44.515v51.101H16.528v-16.26c.33 0 .66 0 .771-.11zm-.771 25.329v-7.3h44.515v7.3H16.528z" id="Shape"/><path id="Shape" d="M52.669 31.081l-1.213-1.106-7.602 7.632-2.645-2.655-1.212 1.107 3.857 3.87z"/><path d="M46.278 46.566c6.61 0 11.9-5.309 11.9-11.945 0-6.637-5.29-11.946-11.9-11.946-6.611 0-11.9 5.31-11.9 11.946s5.399 11.945 11.9 11.945zm0-22.232c5.62 0 10.247 4.646 10.247 10.287 0 5.64-4.628 10.286-10.247 10.286-5.62 0-10.247-4.645-10.247-10.286s4.627-10.287 10.247-10.287z" id="Shape"/></g></g></svg>