<?xml version="1.0" encoding="UTF-8"?>
<svg width="65px" height="73px" viewBox="0 0 65 73" version="1.1" xmlns="http://www.w3.org/2000/svg" xmlns:xlink="http://www.w3.org/1999/xlink">
    <!-- Generator: Sketch 47.1 (45422) - http://www.bohemiancoding.com/sketch -->
    <title>bullet-3</title>
    <desc>Created with Sketch.</desc>
    <defs></defs>
    <g id="Symbols" stroke="none" stroke-width="1" fill="none" fill-rule="evenodd">
        <g id="bullet-3" fill-rule="nonzero" fill="#FFFFFF">
            <rect id="Rectangle-path" x="26.8010965" y="5.81777778" width="1.80935673" height="1.67820513"></rect>
            <path d="M42.7460526,5.48213675 L34.0385234,5.48213675 C33.5861842,2.46136752 30.8721491,0 27.5926901,0 C24.313231,0 21.5991959,2.46136752 21.2599415,5.48213675 L12.5524123,5.48213675 L12.5524123,9.39794872 L0.339254386,9.39794872 L0.339254386,72.7222222 L54.8461257,72.7222222 L54.8461257,9.50982906 L42.7460526,9.50982906 L42.7460526,5.48213675 Z M14.2486842,7.16034188 L22.9562135,7.16034188 L22.9562135,6.37717949 C22.9562135,3.80393162 25.1048246,1.67820513 27.7057749,1.67820513 C30.3067251,1.67820513 32.4553363,3.80393162 32.4553363,6.37717949 L32.4553363,7.16034188 L41.1628655,7.16034188 L41.1628655,12.5305983 L14.2486842,12.5305983 L14.2486842,7.16034188 Z M53.2629386,11.1880342 L53.2629386,71.0440171 L2.03552632,71.0440171 L2.03552632,11.1880342 L12.5524123,11.1880342 L12.5524123,14.2088034 L42.7460526,14.2088034 L42.7460526,11.1880342 L53.2629386,11.1880342 Z" id="Shape"></path>
            <path d="M61.0657895,36.0254701 L58.1255848,41.9551282 L58.1255848,69.701453 C58.1255848,71.3796581 59.4826023,72.6103419 61.0657895,72.6103419 C62.7620614,72.6103419 64.0059942,71.2677778 64.0059942,69.701453 L64.0059942,41.9551282 L61.0657895,36.0254701 Z M61.0657895,39.8294017 L62.3097222,42.4026496 L62.3097222,43.6333333 L59.7087719,43.6333333 L59.7087719,42.4026496 L61.0657895,39.8294017 Z M62.422807,45.1996581 L62.422807,65.8975214 L59.8218567,65.8975214 L59.8218567,45.1996581 L62.422807,45.1996581 Z M61.0657895,71.0440171 C60.3872807,71.0440171 59.8218567,70.4846154 59.8218567,69.8133333 L59.8218567,67.6876068 L62.422807,67.6876068 L62.422807,69.8133333 C62.422807,70.4846154 61.857383,71.0440171 61.0657895,71.0440171 Z" id="Shape"></path>
            <rect id="Rectangle-path" x="24.7655702" y="22.9354701" width="22.2777047" height="1.67820513"></rect>
            <rect id="Rectangle-path" x="24.7655702" y="27.5225641" width="15.3795322" height="1.67820513"></rect>
            <polygon id="Shape" points="11.8739035 27.2988034 10.516886 25.9562393 9.38603801 27.0750427 11.8739035 29.6482906 17.3019737 24.1661538 16.1711257 23.0473504"></polygon>
            <path d="M13.3440058,18.7958974 C9.27295322,18.7958974 6.10657895,22.0404274 6.10657895,25.9562393 C6.10657895,29.8720513 9.38603801,33.1165812 13.3440058,33.1165812 C17.3019737,33.1165812 20.5814327,29.8720513 20.5814327,25.9562393 C20.5814327,22.0404274 17.4150585,18.7958974 13.3440058,18.7958974 Z M13.3440058,31.5502564 C10.2907164,31.5502564 7.68976608,29.0888889 7.68976608,25.9562393 C7.68976608,22.9354701 10.1776316,20.3622222 13.3440058,20.3622222 C16.3972953,20.3622222 18.9982456,22.8235897 18.9982456,25.9562393 C18.9982456,29.0888889 16.3972953,31.5502564 13.3440058,31.5502564 Z" id="Shape"></path>
            <rect id="Rectangle-path" x="24.7655702" y="40.2769231" width="22.2777047" height="1.67820513"></rect>
            <rect id="Rectangle-path" x="24.7655702" y="44.8640171" width="15.3795322" height="1.67820513"></rect>
            <polygon id="Shape" points="11.8739035 44.6402564 10.516886 43.2976923 9.38603801 44.5283761 11.8739035 46.9897436 17.3019737 41.6194872 16.1711257 40.3888034"></polygon>
            <path d="M13.3440058,36.2492308 C9.27295322,36.2492308 6.10657895,39.4937607 6.10657895,43.4095726 C6.10657895,47.437265 9.38603801,50.5699145 13.3440058,50.5699145 C17.3019737,50.5699145 20.5814327,47.3253846 20.5814327,43.4095726 C20.6945175,39.4937607 17.4150585,36.2492308 13.3440058,36.2492308 Z M13.3440058,49.0035897 C10.2907164,49.0035897 7.68976608,46.5422222 7.68976608,43.4095726 C7.68976608,40.3888034 10.1776316,37.8155556 13.3440058,37.8155556 C16.3972953,37.8155556 18.9982456,40.2769231 18.9982456,43.4095726 C18.9982456,46.4303419 16.3972953,49.0035897 13.3440058,49.0035897 Z" id="Shape"></path>
            <rect id="Rectangle-path" x="24.7655702" y="57.7302564" width="22.2777047" height="1.67820513"></rect>
            <rect id="Rectangle-path" x="24.7655702" y="62.3173504" width="15.3795322" height="1.67820513"></rect>
            <polygon id="Shape" points="11.8739035 62.0935897 10.516886 60.7510256 9.38603801 61.8698291 11.8739035 64.4430769 17.3019737 58.9609402 16.1711257 57.8421368"></polygon>
            <path d="M13.3440058,53.5906838 C9.27295322,53.5906838 6.10657895,56.8352137 6.10657895,60.7510256 C6.10657895,64.6668376 9.38603801,67.9113675 13.3440058,67.9113675 C17.3019737,67.9113675 20.5814327,64.6668376 20.5814327,60.7510256 C20.5814327,56.8352137 17.4150585,53.5906838 13.3440058,53.5906838 Z M13.3440058,66.3450427 C10.2907164,66.3450427 7.68976608,63.8836752 7.68976608,60.7510256 C7.68976608,57.7302564 10.1776316,55.1570085 13.3440058,55.1570085 C16.3972953,55.1570085 18.9982456,57.6183761 18.9982456,60.7510256 C18.9982456,63.8836752 16.3972953,66.3450427 13.3440058,66.3450427 Z" id="Shape"></path>
        </g>
    </g>
</svg>