<?xml version="1.0" encoding="UTF-8"?>
<svg width="19px" height="25px" viewBox="0 0 19 25" version="1.1" xmlns="http://www.w3.org/2000/svg" xmlns:xlink="http://www.w3.org/1999/xlink">
    <!-- Generator: Sketch 47.1 (45422) - http://www.bohemiancoding.com/sketch -->
    <title>sprite-mark</title>
    <desc>Created with Sketch.</desc>
    <defs></defs>
    <g id="Symbols" stroke="none" stroke-width="1" fill="none" fill-rule="evenodd">
        <g id="sprite-mark" fill-rule="nonzero" fill="#E94C36">
            <path d="M1.91880369,15.0733955 L9.49847122,25 L17.0781388,15.0733955 C20.0379618,11.1979267 19.5278135,5.72872537 15.9011538,2.45516802 C12.2744942,-0.818389339 6.72550578,-0.818389339 3.09884616,2.45516802 C-0.527813457,5.72872537 -1.03796177,11.1979267 1.92186124,15.0733955 L1.91880369,15.0733955 Z M9.49847122,1.8207732 C12.4072879,1.81757466 15.0668844,3.44561269 16.3633378,6.02301362 C17.6597911,8.60041454 17.3693158,11.6822838 15.6135721,13.9778373 L9.49847122,21.9887282 L3.38337035,13.9778373 C1.62762663,11.6822838 1.33715133,8.60041454 2.6336047,6.02301362 C3.93005806,3.44561269 6.58965454,1.81757466 9.49847122,1.8207732 L9.49847122,1.8207732 Z" id="Shape"></path>
            <path d="M9.5,14 C11.9852814,14 14,11.9852814 14,9.5 C14,7.01471863 11.9852814,5 9.5,5 C7.01471863,5 5,7.01471863 5,9.5 C5.00314826,11.9839762 7.01602385,13.9968517 9.5,14 L9.5,14 Z M9.5,6.71428571 C11.0385075,6.71428571 12.2857143,7.96149248 12.2857143,9.5 C12.2857143,11.0385075 11.0385075,12.2857143 9.5,12.2857143 C7.96149248,12.2857143 6.71428571,11.0385075 6.71428571,9.5 C6.71586058,7.96214529 7.96214529,6.71586058 9.5,6.71428571 Z" id="Shape"></path>
        </g>
    </g>
</svg>